<svg width="994" height="518" viewBox="0 0 994 518" fill="none" xmlns="http://www.w3.org/2000/svg">
<path d="M222.171 251.869C234.085 231.08 226.785 204.755 205.867 193.07C184.948 181.385 158.332 188.765 146.419 209.555L6.5717 453.587C-5.3419 474.374 1.95801 500.704 22.8763 512.384C43.7947 524.07 70.4105 516.691 82.324 495.904L222.171 251.869Z" fill="#C5F74F"/>
<path d="M523.605 64.756C535.518 43.967 528.219 17.642 507.3 5.957C486.382 -5.727 459.766 1.65299 447.853 22.442L308.005 266.474C296.092 287.263 303.392 313.588 324.31 325.273C345.228 336.958 371.844 329.578 383.757 308.789L523.605 64.756Z" fill="#C5F74F"/>
<path d="M987.43 64.765C999.34 43.976 992.05 17.651 971.125 5.966C950.21 -5.718 923.592 1.66098 911.675 22.451L771.829 266.483C759.918 287.272 767.214 313.597 788.136 325.282C809.051 336.967 835.669 329.587 847.579 308.797L987.43 64.765Z" fill="#C5F74F"/>
<path d="M685.928 251.869C697.838 231.08 690.536 204.755 669.621 193.07C648.699 181.385 622.087 188.765 610.173 209.555L470.325 453.587C458.412 474.374 465.712 500.704 486.63 512.384C507.548 524.07 534.164 516.691 546.078 495.904L685.928 251.869Z" fill="#C5F74F"/>
</svg>
